<?xml version="1.0" encoding="utf-8"?>
<!-- Generator: Adobe Illustrator 24.3.0, SVG Export Plug-In . SVG Version: 6.00 Build 0)  -->
<svg version="1.1" id="Layer_1" xmlns="http://www.w3.org/2000/svg" xmlns:xlink="http://www.w3.org/1999/xlink" x="0px" y="0px"
	 viewBox="0 0 1920 205" style="enable-background:new 0 0 1920 205;" xml:space="preserve">
<style type="text/css">
	.st0{enable-background:new    ;}
	.st1{fill:#FBFBFB;}
</style>
<g class="st0">
	<path class="st1" d="M18.5,32.7h41v113.9h-41V32.7z"/>
	<path class="st1" d="M86.6,32.7h41V66l28.6-21.6c4-3.1,6.9-5.6,8.8-7.5c1.8-1.9,3-3.1,3.4-3.5c0.5-0.4,0.9-0.7,1.2-0.9
		c0.6-0.4,1.5-0.6,2.5-0.6c1,0,1.8,0.3,2.4,0.8c0.6,0.6,0.9,1.2,0.9,1.9s-0.1,1.2-0.2,1.7c-0.2,0.5-0.5,1-1,1.6
		c-1.1,1.3-3.1,3.1-6.1,5.4l-18,13.7l30.2,73.8c0.6,1.4,1.2,2.6,1.7,3.7l1.3,2.9l1.4,2.7c0.4,0.8,0.7,1.5,1,2.2
		c0.3,0.7,0.4,1.4,0.3,2c-0.1,0.6-0.2,1.2-0.6,1.8c-0.8,1.2-1.7,1.8-2.7,1.8c-1.5,0-2.6-0.4-3.4-1.3c-1-1.2-1.7-2.5-2.2-3.9
		l-1.4-4.5c-0.5-1.5-1.1-3.3-1.9-5.4L144.5,61l-16.9,12.8v72.7h-41V32.7z"/>
	<path class="st1" d="M257.7,107.5l6.6,0.5c9.4,0,17.5-3.3,24.1-9.9c6.6-6.6,9.9-14.8,9.9-24.6c0-12.9-5.7-22.4-17-28.6
		c-6.2-3.4-12.9-5.4-20-6c-3-0.3-5.8-0.4-8.4-0.4h-5.5c-1.1,0-2.1,0-3,0.1v108h-41V32.7c12.6,0,22.7,0,30.5,0c7.8,0,12.8,0,15.2,0.1
		c2.4,0.1,4.5,0.1,6.3,0.2c1.9,0.1,3.6,0.2,5.2,0.3c2.4,0.2,5.7,0.7,10,1.5c4.3,0.8,8.6,2.3,12.8,4.6c4.2,2.3,7.9,5,10.9,8.4
		c6.6,7.1,9.9,15.5,9.9,25.3c0,9.7-3.1,18.2-9.2,25.6c-6.3,7.6-14.6,12.4-25.1,14.6c5,15.4,11.3,24.7,19.1,27.7
		c2.4,0.9,4.7,1.4,7.1,1.4l6.4-1.5c2,0,3,1,3,3.1c0,2.8-3.3,4.3-10,4.3c-4.8,0-9.3-1.3-13.3-4c-6.3-3.8-11.6-11.1-16-21.9l-2.3-5.7
		c-0.4-0.9-0.7-1.5-1-1.7c-0.3-0.2-0.8-0.3-1.5-0.3s-1.4,0.1-1.9,0.2l-1.9,0.1c-2.1,0-3.6-0.4-4.4-1.2c-0.8-0.8-1.2-1.6-1.2-2.5
		C252.1,108.7,254,107.5,257.7,107.5z"/>
	<path class="st1" d="M344.4,132.3c-9.8,0-16.5-0.1-20.1-0.2l-2.3,5.6c-0.7,1.6-1.3,3.2-1.9,4.9c-1.2,3.3-3,5-5.2,5
		c-1,0-1.9-0.3-2.5-1c-0.6-0.6-1-1.3-1-2c0-1.2,0.5-2.5,1.5-3.9c1.6-2.3,3.2-5.2,4.7-8.9c-4.6-0.4-6.9-1.8-6.9-4
		c0-2.3,1.3-3.4,3.9-3.4c1.6,0,3.5,0.3,5.6,0.8l40.2-97.5l55,119h-41.9l-6.7-14.3H344.4z M326.9,125.7c5.1,0.4,9.8,0.6,13.8,0.6
		h23.6L344.2,83L326.9,125.7z"/>
	<path class="st1" d="M420.8,146.4c-0.5-0.8-0.8-1.7-0.6-2.7c0.3-1.7,0.8-3.2,1.5-4.6c0.8-1.4,1.3-2.4,1.6-3.1
		c0.3-0.7,0.7-1.5,1.1-2.3l3.1-7.1l33.1-99.1l35.6,68.7l34.5-68.7l41.3,119h-43.2l-20-61.5l-30.9,64.4l-32.5-57.9l-11.3,35.2
		c-1.8,3.9-3,7.2-3.8,10c-0.8,2.7-1.4,4.9-1.9,6.4c-1.1,3.4-2.8,5-5.3,4.7C422.2,147.7,421.4,147.2,420.8,146.4z"/>
	<path class="st1" d="M712.6,134.9l0.2,8.2c0,1.4-0.4,2.5-1.2,3.2s-1.7,1.1-2.8,1.1c-1,0-1.9-0.3-2.5-1c-0.6-0.7-0.9-1.6-0.9-2.7
		s0.1-2.3,0.4-3.6c0.4-1.7,0.6-5.8,0.6-12.5V68.9h-40.5v77.7h-41.1V32.7h41.1V63c11.6,0,20.8,0,27.7,0c6.9,0,11.1,0,12.8-0.1V49
		c0-4.7-0.1-7.7-0.2-9.1l-0.3-2.4c-0.1-0.8-0.1-1.4-0.1-1.9c0-2.5,1.1-3.7,3.4-3.7c0.8,0,1.6,0.3,2.5,1c0.9,0.6,1.3,1.7,1.3,3.2
		l-0.3,10.3v16.3l5.1-0.7c1,0,1.8,0.3,2.4,0.8c0.6,0.6,1,1.3,1,2.2c0,2.1-1.7,3.3-5,3.5c-0.6,0.1-1.2,0.2-1.7,0.2
		c-0.6,0-1.1,0.1-1.7,0.1V134.9z"/>
	<path class="st1" d="M842.7,36.1l-0.5,10v48.1c0,15.9-4.6,28.8-13.7,38.7c-9.3,10.1-21.7,15.2-37.2,15.2
		c-16.5,0-29.4-5.2-38.6-15.5c-8.6-9.5-12.9-21.7-12.9-36.5V32.7H781v108.6c4.1,0.6,8.7,0.9,13.6,0.9c5,0,10-1,15.1-3
		c5.1-2,9.6-5.1,13.5-9.3c8.4-9.1,12.6-22.5,12.7-40V46.2c0-1.6-0.1-3.5-0.4-5.7c-0.2-2.2-0.4-3.7-0.4-4.5c0-2.8,1.3-4.2,3.9-4.2
		C841.5,31.8,842.7,33.2,842.7,36.1z"/>
	<path class="st1" d="M868.7,140.8c-1.9-1.1-3.5-2.2-4.9-3.4c-1.4-1.2-2.1-2.4-2.1-3.8c0-2.6,1.1-3.9,3.3-3.9c1.4,0,3.1,0.8,4.8,2.4
		c1.8,1.6,3.8,3,6,4.2c2.2,1.2,4.6,2.2,7.2,3.1c5.3,1.8,10.2,2.7,14.7,2.7s8-0.3,10.4-0.9c2.4-0.6,4.5-1.4,6.2-2.4
		c3.5-2.2,5.3-5,5.3-8.4c0-3.2-1.5-6.4-4.6-9.6c-2.6-2.7-6.2-6-10.9-9.8l-13.8-10.8c-13.8-10.6-21.9-20.3-24.4-29.1
		c-0.9-3.1-1.3-6.5-1.3-10.2c0-3.8,0.8-7.5,2.5-11.1c1.7-3.6,4.2-6.8,7.5-9.6c7.1-6,16.8-8.9,29.1-8.9c6.3,0,11.9,0.9,16.9,2.8
		s8.4,3.5,10.2,4.9c1.8,1.4,2.7,2.8,2.7,3.9c0,2.5-1,3.7-3.1,3.7c-1.2,0-2.4-0.6-3.8-1.8c-1.3-1.2-2.8-2.2-4.5-3.1
		c-1.6-0.9-3.5-1.7-5.6-2.4c-4.5-1.5-8.9-2.3-13.3-2.3c-8,0-12,2.6-12,7.9c0,2.2,0.7,4.2,2.2,6.1c2.6,3.3,7.6,8,15.1,14
		c7.5,6.1,13.5,11.4,18,16c4.5,4.6,8,8.7,10.3,12.3c3.8,5.7,5.6,11.7,5.6,17.9c0,6.2-1.1,11.5-3.3,15.8c-2.2,4.3-5.2,8-9.1,11.1
		c-8.3,6.5-18.5,9.8-30.7,9.8C887.4,148.1,877.1,145.7,868.7,140.8z"/>
	<path class="st1" d="M964.4,140.8c-1.9-1.1-3.5-2.2-4.9-3.4c-1.4-1.2-2.1-2.4-2.1-3.8c0-2.6,1.1-3.9,3.3-3.9c1.4,0,3.1,0.8,4.8,2.4
		c1.8,1.6,3.8,3,6,4.2s4.6,2.2,7.2,3.1c5.3,1.8,10.2,2.7,14.7,2.7s8-0.3,10.4-0.9c2.4-0.6,4.5-1.4,6.2-2.4c3.5-2.2,5.3-5,5.3-8.4
		c0-3.2-1.5-6.4-4.6-9.6c-2.6-2.7-6.2-6-10.9-9.8l-13.8-10.8c-13.8-10.6-21.9-20.3-24.4-29.1c-0.9-3.1-1.3-6.5-1.3-10.2
		c0-3.8,0.8-7.5,2.5-11.1c1.7-3.6,4.2-6.8,7.5-9.6c7.1-6,16.8-8.9,29.1-8.9c6.3,0,11.9,0.9,16.9,2.8c5,1.9,8.4,3.5,10.2,4.9
		c1.8,1.4,2.7,2.8,2.7,3.9c0,2.5-1,3.7-3.1,3.7c-1.2,0-2.4-0.6-3.8-1.8c-1.3-1.2-2.8-2.2-4.5-3.1c-1.6-0.9-3.5-1.7-5.6-2.4
		c-4.5-1.5-8.9-2.3-13.3-2.3c-8,0-12,2.6-12,7.9c0,2.2,0.7,4.2,2.2,6.1c2.6,3.3,7.6,8,15.1,14s13.5,11.4,18,16
		c4.5,4.6,8,8.7,10.3,12.3c3.8,5.7,5.6,11.7,5.6,17.9c0,6.2-1.1,11.5-3.3,15.8c-2.2,4.3-5.2,8-9.1,11.1c-8.3,6.5-18.5,9.8-30.7,9.8
		C983.2,148.1,972.8,145.7,964.4,140.8z"/>
	<path class="st1" d="M1080.3,132.3c-9.8,0-16.5-0.1-20.1-0.2l-2.3,5.6c-0.7,1.6-1.3,3.2-1.9,4.9c-1.2,3.3-3,5-5.2,5
		c-1,0-1.9-0.3-2.5-1c-0.6-0.6-1-1.3-1-2c0-1.2,0.5-2.5,1.5-3.9c1.6-2.3,3.2-5.2,4.7-8.9c-4.6-0.4-6.9-1.8-6.9-4
		c0-2.3,1.3-3.4,3.9-3.4c1.6,0,3.5,0.3,5.6,0.8l40.2-97.5l55,119h-41.9l-6.7-14.3H1080.3z M1062.8,125.7c5.2,0.4,9.8,0.6,13.8,0.6
		h23.6L1080.1,83L1062.8,125.7z"/>
	<path class="st1" d="M1167.9,32.7h41v113.9h-41V32.7z"/>
	<path class="st1" d="M1243.2,135.1l0.2,8c0,1.4-0.4,2.5-1.1,3.2c-0.8,0.8-1.6,1.1-2.7,1.1c-1,0-1.9-0.3-2.6-1c-0.7-0.7-1-1.5-1-2.3
		c0-0.8,0.1-1.6,0.2-2.3c0.1-0.7,0.3-1.5,0.4-2.5c0.3-1.6,0.4-5.4,0.4-11.7V27.6l87.5,69.4V49c0-3.6-0.1-6.2-0.3-7.8
		c-0.3-2.5-0.4-4.3-0.4-5.3c0-2.7,1.2-4,3.5-4c0.9,0,1.8,0.3,2.6,1c0.8,0.6,1.2,1.6,1.2,2.8v2.8l-0.3,11.7V151l-87.5-68.6V135.1z"/>
	<path class="st1" d="M1396.1,140.8c-1.9-1.1-3.5-2.2-4.9-3.4s-2.1-2.4-2.1-3.8c0-2.6,1.1-3.9,3.3-3.9c1.4,0,3.1,0.8,4.8,2.4
		s3.8,3,6,4.2c2.2,1.2,4.6,2.2,7.2,3.1c5.3,1.8,10.2,2.7,14.7,2.7c4.5,0,8-0.3,10.4-0.9c2.4-0.6,4.5-1.4,6.2-2.4
		c3.5-2.2,5.3-5,5.3-8.4c0-3.2-1.5-6.4-4.6-9.6c-2.6-2.7-6.2-6-10.9-9.8l-13.8-10.8c-13.8-10.6-21.9-20.3-24.4-29.1
		c-0.9-3.1-1.3-6.5-1.3-10.2c0-3.8,0.8-7.5,2.5-11.1c1.7-3.6,4.2-6.8,7.5-9.6c7.1-6,16.8-8.9,29.1-8.9c6.3,0,11.9,0.9,16.9,2.8
		s8.4,3.5,10.2,4.9c1.8,1.4,2.7,2.8,2.7,3.9c0,2.5-1,3.7-3.1,3.7c-1.2,0-2.4-0.6-3.8-1.8c-1.3-1.2-2.8-2.2-4.5-3.1
		c-1.6-0.9-3.5-1.7-5.6-2.4c-4.5-1.5-8.9-2.3-13.3-2.3c-8,0-12,2.6-12,7.9c0,2.2,0.7,4.2,2.2,6.1c2.6,3.3,7.6,8,15.1,14
		c7.5,6.1,13.5,11.4,18,16c4.5,4.6,8,8.7,10.3,12.3c3.8,5.7,5.6,11.7,5.6,17.9c0,6.2-1.1,11.5-3.3,15.8s-5.2,8-9.1,11.1
		c-8.3,6.5-18.5,9.8-30.7,9.8S1404.6,145.7,1396.1,140.8z"/>
	<path class="st1" d="M1490.5,32.7h41v113.9h-41V32.7z"/>
	<path class="st1" d="M1583.2,147.5c-2.3,0-3.5-1.2-3.5-3.5c0-1.4,0.7-3,2.1-4.7c2.8-3.3,5.4-7.2,8-11.5l4.1-7.3l-47.8-87.6h46.9
		l23,48.5l20.6-36.6c1.5-2.8,2.8-5.6,3.9-8.5c1.1-2.9,2.5-4.3,4.3-4.3c2.2,0,3.3,1.1,3.3,3.3c0,1.3-0.5,2.8-1.4,4.4l-55,98.2
		c-0.6,1.1-1.1,2-1.4,2.7l-1.4,2.9C1587.3,146.1,1585.5,147.5,1583.2,147.5z"/>
	<path class="st1" d="M1685,132.3c-9.8,0-16.5-0.1-20.1-0.2l-2.3,5.6c-0.7,1.6-1.3,3.2-1.9,4.9c-1.2,3.3-3,5-5.2,5
		c-1,0-1.9-0.3-2.5-1c-0.6-0.6-1-1.3-1-2c0-1.2,0.5-2.5,1.5-3.9c1.6-2.3,3.2-5.2,4.7-8.9c-4.6-0.4-6.9-1.8-6.9-4
		c0-2.3,1.3-3.4,3.9-3.4c1.6,0,3.5,0.3,5.6,0.8l40.2-97.5l55,119h-41.9l-6.7-14.3H1685z M1667.4,125.7c5.2,0.4,9.8,0.6,13.8,0.6
		h23.6L1684.7,83L1667.4,125.7z"/>
	<path class="st1" d="M1761.4,146.4c-0.5-0.8-0.8-1.7-0.6-2.7c0.3-1.7,0.8-3.2,1.5-4.6c0.8-1.4,1.3-2.4,1.6-3.1
		c0.3-0.7,0.7-1.5,1.1-2.3l3.1-7.1l33.1-99.1l35.6,68.7l34.5-68.7l41.3,119h-43.2l-20-61.5l-30.9,64.4l-32.5-57.9l-11.3,35.2
		c-1.8,3.9-3,7.2-3.8,10c-0.8,2.7-1.4,4.9-1.9,6.4c-1.1,3.4-2.8,5-5.3,4.7C1762.7,147.7,1761.9,147.2,1761.4,146.4z"/>
</g>
</svg>
